<svg xmlns="http://www.w3.org/2000/svg" width="3259" height="1431" viewBox="0 0 3259 1431">
<rect x="0" y="0" width="3259" height="1431" fill="#111111"/>
<rect x="100" y="435.20120000000003" width="3059" height="895" rx="0" ry="0" fill="none" fill-opacity="0.1" stroke="#b8c0cc" stroke-width="2" stroke-linecap="round"/>
<text x="1629.5" y="465.20120000000003" text-anchor="middle" dominant-baseline="middle" font-family="Inter, system-ui, sans-serif" font-size="24" font-weight="600" font-style="italic" fill="#ffffff">Big Bank plc</text>
<defs><marker id="arrow-internetBankingSystem-mainframeGetsaccountinformationfromandmakespaymentsusing" orient="auto" overflow="visible" markerUnits="userSpaceOnUse"><path d="M 20 -10 0 0 20 10 Z" transform="rotate(180)" fill="#707070" stroke="#707070"/></marker></defs>
<defs><marker id="arrow-internetBankingSystem-emailSendse-mailusing" orient="auto" overflow="visible" markerUnits="userSpaceOnUse"><path d="M 20 -10 0 0 20 10 Z" transform="rotate(180)" fill="#707070" stroke="#707070"/></marker></defs>
<defs><marker id="arrow-supportStaff-mainframeUses" orient="auto" overflow="visible" markerUnits="userSpaceOnUse"><path d="M 20 -10 0 0 20 10 Z" transform="rotate(180)" fill="#707070" stroke="#707070"/></marker></defs>
<defs><marker id="arrow-atm-mainframeUses" orient="auto" overflow="visible" markerUnits="userSpaceOnUse"><path d="M 20 -10 0 0 20 10 Z" transform="rotate(180)" fill="#707070" stroke="#707070"/></marker></defs>
<defs><marker id="arrow-backoffice-mainframeUses" orient="auto" overflow="visible" markerUnits="userSpaceOnUse"><path d="M 20 -10 0 0 20 10 Z" transform="rotate(180)" fill="#707070" stroke="#707070"/></marker></defs>
<defs><marker id="arrow-customer-internetBankingSystemViewsaccountbalancesandmakespaymentsusing" orient="auto" overflow="visible" markerUnits="userSpaceOnUse"><path d="M 20 -10 0 0 20 10 Z" transform="rotate(180)" fill="#707070" stroke="#707070"/></marker></defs>
<defs><marker id="arrow-email-customerSendse-mailsto" orient="auto" overflow="visible" markerUnits="userSpaceOnUse"><path d="M 20 -10 0 0 20 10 Z" transform="rotate(180)" fill="#707070" stroke="#707070"/></marker></defs>
<defs><marker id="arrow-customer-supportStaffAsksquestionsto" orient="auto" overflow="visible" markerUnits="userSpaceOnUse"><path d="M 20 -10 0 0 20 10 Z" transform="rotate(180)" fill="#707070" stroke="#707070"/></marker></defs>
<defs><marker id="arrow-customer-atmWithdrawscashusing" orient="auto" overflow="visible" markerUnits="userSpaceOnUse"><path d="M 20 -10 0 0 20 10 Z" transform="rotate(180)" fill="#707070" stroke="#707070"/></marker></defs>
<defs><mask id="edge-label-mask-internetBankingSystem-_3e_mainframe_3a_Gets_20_account_20_information_20_from_2c__20_and_20_makes_20_payments_20_using" maskUnits="userSpaceOnUse" x="-100000" y="-100000" width="200000" height="200000"><rect x="-100000" y="-100000" width="200000" height="200000" fill="white"/><rect data-edge-label-cutout="internetBankingSystem-&gt;mainframe:Gets account information from, and makes payments using" x="713.55720703125" y="867.48" width="28.2255859375" height="21" rx="3" ry="3" fill="black"/></mask></defs>
<path d="M 670.2 430 L 698.94 430 C 727.67 430 727.67 430 727.67 670 C 727.67 910 727.67 910 972.39 910 L 1217.1 910" transform="translate(100 250.00119999999998)" fill="none" stroke="#707070" stroke-width="1.5" stroke-linejoin="round" stroke-dasharray="8 8" marker-end="url(#arrow-internetBankingSystem-mainframeGetsaccountinformationfromandmakespaymentsusing)" mask="url(#edge-label-mask-internetBankingSystem-_3e_mainframe_3a_Gets_20_account_20_information_20_from_2c__20_and_20_makes_20_payments_20_using)"/>
<g transform="translate(100 250.00119999999998)" data-edge-animation="dot"><path id="edge-motion-0-internetBankingSystem-_3e_mainframe_3a_Gets_20_account_20_information_20_from_2c__20_and_20_makes_20_payments_20_using" d="M 670.2 430 L 698.94 430 C 727.67 430 727.67 430 727.67 670 C 727.67 910 727.67 910 972.39 910 L 1217.1 910" fill="none" stroke="none"/><circle r="4.5" fill="#a855f7" stroke="#ffffff" stroke-width="1"><animateMotion dur="2.5s" repeatCount="indefinite" rotate="auto"><mpath href="#edge-motion-0-internetBankingSystem-_3e_mainframe_3a_Gets_20_account_20_information_20_from_2c__20_and_20_makes_20_payments_20_using"/></animateMotion></circle></g>
<defs><mask id="edge-label-mask-internetBankingSystem-_3e_email_3a_Sends_20_e-mail_20_using" maskUnits="userSpaceOnUse" x="-100000" y="-100000" width="200000" height="200000"><rect x="-100000" y="-100000" width="200000" height="200000" fill="white"/><rect data-edge-label-cutout="internetBankingSystem-&gt;email:Sends e-mail using" x="307.7529296875" y="620.7850000000001" width="124.494140625" height="21" rx="3" ry="3" fill="black"/></mask></defs>
<path d="M 370 580.39 L 370 698.18" transform="translate(100 250.00119999999998)" fill="none" stroke="#707070" stroke-width="1.5" stroke-linejoin="round" stroke-dasharray="8 8" marker-end="url(#arrow-internetBankingSystem-emailSendse-mailusing)" mask="url(#edge-label-mask-internetBankingSystem-_3e_email_3a_Sends_20_e-mail_20_using)"/>
<g transform="translate(100 250.00119999999998)" data-edge-animation="dot"><path id="edge-motion-1-internetBankingSystem-_3e_email_3a_Sends_20_e-mail_20_using" d="M 370 580.39 L 370 698.18" fill="none" stroke="none"/><circle r="4.5" fill="#a855f7" stroke="#ffffff" stroke-width="1"><animateMotion dur="2.5s" repeatCount="indefinite" rotate="auto"><mpath href="#edge-motion-1-internetBankingSystem-_3e_email_3a_Sends_20_e-mail_20_using"/></animateMotion></circle></g>
<defs><mask id="edge-label-mask-supportStaff-_3e_mainframe_3a_Uses" maskUnits="userSpaceOnUse" x="-100000" y="-100000" width="200000" height="200000"><rect x="-100000" y="-100000" width="200000" height="200000" fill="white"/><rect data-edge-label-cutout="supportStaff-&gt;mainframe:Uses" x="2383.324140625" y="841.5" width="42.76171875" height="21" rx="3" ry="3" fill="black"/></mask></defs>
<path d="M 2689 580.39 L 2689 720.2 C 2689 860 2689 860 2264.9 860 L 1840.8 860" transform="translate(100 250.00119999999998)" fill="none" stroke="#707070" stroke-width="1.5" stroke-linejoin="round" stroke-dasharray="8 8" marker-end="url(#arrow-supportStaff-mainframeUses)" mask="url(#edge-label-mask-supportStaff-_3e_mainframe_3a_Uses)"/>
<g transform="translate(100 250.00119999999998)" data-edge-animation="dot"><path id="edge-motion-2-supportStaff-_3e_mainframe_3a_Uses" d="M 2689 580.39 L 2689 720.2 C 2689 860 2689 860 2264.9 860 L 1840.8 860" fill="none" stroke="none"/><circle r="4.5" fill="#a855f7" stroke="#ffffff" stroke-width="1"><animateMotion dur="2.5s" repeatCount="indefinite" rotate="auto"><mpath href="#edge-motion-2-supportStaff-_3e_mainframe_3a_Uses"/></animateMotion></circle></g>
<defs><mask id="edge-label-mask-atm-_3e_mainframe_3a_Uses" maskUnits="userSpaceOnUse" x="-100000" y="-100000" width="200000" height="200000"><rect x="-100000" y="-100000" width="200000" height="200000" fill="white"/><rect data-edge-label-cutout="atm-&gt;mainframe:Uses" x="1314.619140625" y="620.7850000000001" width="42.76171875" height="21" rx="3" ry="3" fill="black"/></mask></defs>
<path d="M 1336 580.39 L 1336 698.18" transform="translate(100 250.00119999999998)" fill="none" stroke="#707070" stroke-width="1.5" stroke-linejoin="round" stroke-dasharray="8 8" marker-end="url(#arrow-atm-mainframeUses)" mask="url(#edge-label-mask-atm-_3e_mainframe_3a_Uses)"/>
<g transform="translate(100 250.00119999999998)" data-edge-animation="dot"><path id="edge-motion-3-atm-_3e_mainframe_3a_Uses" d="M 1336 580.39 L 1336 698.18" fill="none" stroke="none"/><circle r="4.5" fill="#a855f7" stroke="#ffffff" stroke-width="1"><animateMotion dur="2.5s" repeatCount="indefinite" rotate="auto"><mpath href="#edge-motion-3-atm-_3e_mainframe_3a_Uses"/></animateMotion></circle></g>
<defs><mask id="edge-label-mask-backoffice-_3e_mainframe_3a_Uses" maskUnits="userSpaceOnUse" x="-100000" y="-100000" width="200000" height="200000"><rect x="-100000" y="-100000" width="200000" height="200000" fill="white"/><rect data-edge-label-cutout="backoffice-&gt;mainframe:Uses" x="1701.119140625" y="620.7850000000001" width="42.76171875" height="21" rx="3" ry="3" fill="black"/></mask></defs>
<path d="M 1722.5 580.39 L 1722.5 698.18" transform="translate(100 250.00119999999998)" fill="none" stroke="#707070" stroke-width="1.5" stroke-linejoin="round" stroke-dasharray="8 8" marker-end="url(#arrow-backoffice-mainframeUses)" mask="url(#edge-label-mask-backoffice-_3e_mainframe_3a_Uses)"/>
<g transform="translate(100 250.00119999999998)" data-edge-animation="dot"><path id="edge-motion-4-backoffice-_3e_mainframe_3a_Uses" d="M 1722.5 580.39 L 1722.5 698.18" fill="none" stroke="none"/><circle r="4.5" fill="#a855f7" stroke="#ffffff" stroke-width="1"><animateMotion dur="2.5s" repeatCount="indefinite" rotate="auto"><mpath href="#edge-motion-4-backoffice-_3e_mainframe_3a_Uses"/></animateMotion></circle></g>
<defs><mask id="edge-label-mask-customer-_3e_internetBankingSystem_3a_Views_20_account_20_balances_2c__20_and_20_makes_20_payments_20_using" maskUnits="userSpaceOnUse" x="-100000" y="-100000" width="200000" height="200000"><rect x="-100000" y="-100000" width="200000" height="200000" fill="white"/><rect data-edge-label-cutout="customer-&gt;internetBankingSystem:Views account balances, and makes payments using" x="548.88720703125" y="190.78499999999997" width="28.2255859375" height="21" rx="3" ry="3" fill="black"/></mask></defs>
<path d="M 563 150.39 L 563 268.18" transform="translate(100 250.00119999999998)" fill="none" stroke="#707070" stroke-width="1.5" stroke-linejoin="round" stroke-dasharray="8 8" marker-end="url(#arrow-customer-internetBankingSystemViewsaccountbalancesandmakespaymentsusing)" mask="url(#edge-label-mask-customer-_3e_internetBankingSystem_3a_Views_20_account_20_balances_2c__20_and_20_makes_20_payments_20_using)"/>
<g transform="translate(100 250.00119999999998)" data-edge-animation="dot"><path id="edge-motion-5-customer-_3e_internetBankingSystem_3a_Views_20_account_20_balances_2c__20_and_20_makes_20_payments_20_using" d="M 563 150.39 L 563 268.18" fill="none" stroke="none"/><circle r="4.5" fill="#a855f7" stroke="#ffffff" stroke-width="1"><animateMotion dur="2.5s" repeatCount="indefinite" rotate="auto"><mpath href="#edge-motion-5-customer-_3e_internetBankingSystem_3a_Views_20_account_20_balances_2c__20_and_20_makes_20_payments_20_using"/></animateMotion></circle></g>
<defs><mask id="edge-label-mask-email-_3e_customer_3a_Sends_20_e-mails_20_to" maskUnits="userSpaceOnUse" x="-100000" y="-100000" width="200000" height="200000"><rect x="-100000" y="-100000" width="200000" height="200000" fill="white"/><rect data-edge-label-cutout="email-&gt;customer:Sends e-mails to" x="729.83048828125" y="524.915" width="110.9990234375" height="21" rx="3" ry="3" fill="black"/></mask></defs>
<path d="M 670.47 810 L 727.9 810 C 785.33 810 785.33 810 785.33 485.99 L 785.33 161.97" transform="translate(100 250.00119999999998)" fill="none" stroke="#707070" stroke-width="1.5" stroke-linejoin="round" stroke-dasharray="8 8" marker-end="url(#arrow-email-customerSendse-mailsto)" mask="url(#edge-label-mask-email-_3e_customer_3a_Sends_20_e-mails_20_to)"/>
<g transform="translate(100 250.00119999999998)" data-edge-animation="dot"><path id="edge-motion-6-email-_3e_customer_3a_Sends_20_e-mails_20_to" d="M 670.47 810 L 727.9 810 C 785.33 810 785.33 810 785.33 485.99 L 785.33 161.97" fill="none" stroke="none"/><circle r="4.5" fill="#a855f7" stroke="#ffffff" stroke-width="1"><animateMotion dur="2.5s" repeatCount="indefinite" rotate="auto"><mpath href="#edge-motion-6-email-_3e_customer_3a_Sends_20_e-mails_20_to"/></animateMotion></circle></g>
<defs><mask id="edge-label-mask-customer-_3e_supportStaff_3a_Asks_20_questions_20_to" maskUnits="userSpaceOnUse" x="-100000" y="-100000" width="200000" height="200000"><rect x="-100000" y="-100000" width="200000" height="200000" fill="white"/><rect data-edge-label-cutout="customer-&gt;supportStaff:Asks questions to" x="1948.5477343750003" y="-26.3" width="116.39453125" height="36.6" rx="3" ry="3" fill="black"/></mask></defs>
<path d="M 1056.4 0 L 1872.7 0 C 2689 0 2689 0 2689 134.05 L 2689 268.09" transform="translate(100 250.00119999999998)" fill="none" stroke="#707070" stroke-width="1.5" stroke-linejoin="round" stroke-dasharray="8 8" marker-end="url(#arrow-customer-supportStaffAsksquestionsto)" mask="url(#edge-label-mask-customer-_3e_supportStaff_3a_Asks_20_questions_20_to)"/>
<g transform="translate(100 250.00119999999998)" data-edge-animation="dot"><path id="edge-motion-7-customer-_3e_supportStaff_3a_Asks_20_questions_20_to" d="M 1056.4 0 L 1872.7 0 C 2689 0 2689 0 2689 134.05 L 2689 268.09" fill="none" stroke="none"/><circle r="4.5" fill="#a855f7" stroke="#ffffff" stroke-width="1"><animateMotion dur="2.5s" repeatCount="indefinite" rotate="auto"><mpath href="#edge-motion-7-customer-_3e_supportStaff_3a_Asks_20_questions_20_to"/></animateMotion></circle></g>
<defs><mask id="edge-label-mask-customer-_3e_atm_3a_Withdraws_20_cash_20_using" maskUnits="userSpaceOnUse" x="-100000" y="-100000" width="200000" height="200000"><rect x="-100000" y="-100000" width="200000" height="200000" fill="white"/><rect data-edge-label-cutout="customer-&gt;atm:Withdraws cash using" x="879.29931640625" y="190.78499999999997" width="140.4013671875" height="21" rx="3" ry="3" fill="black"/></mask></defs>
<path d="M 949.5 150.39 L 949.5 268.18" transform="translate(100 250.00119999999998)" fill="none" stroke="#707070" stroke-width="1.5" stroke-linejoin="round" stroke-dasharray="8 8" marker-end="url(#arrow-customer-atmWithdrawscashusing)" mask="url(#edge-label-mask-customer-_3e_atm_3a_Withdraws_20_cash_20_using)"/>
<g transform="translate(100 250.00119999999998)" data-edge-animation="dot"><path id="edge-motion-8-customer-_3e_atm_3a_Withdraws_20_cash_20_using" d="M 949.5 150.39 L 949.5 268.18" fill="none" stroke="none"/><circle r="4.5" fill="#a855f7" stroke="#ffffff" stroke-width="1"><animateMotion dur="2.5s" repeatCount="indefinite" rotate="auto"><mpath href="#edge-motion-8-customer-_3e_atm_3a_Withdraws_20_cash_20_using"/></animateMotion></circle></g>
<svg xmlns="http://www.w3.org/2000/svg" x="556.0012" y="100" width="599.9975999999999" height="300.00239999999997" viewBox="0 0 599.9975999999999 300.00239999999997" style="overflow:visible"><g opacity="1"><svg xmlns="http://www.w3.org/2000/svg" width="599.9975999999999" height="300.00239999999997" viewBox="0 0 599.9975999999999 300.00239999999997" style="overflow:visible"><svg xmlns="http://www.w3.org/2000/svg" width="599.9975999999999" height="300.00239999999997" viewBox="0 0 599.9975999999999 300.00239999999997" style="overflow:visible"><g opacity="1"><rect class="node-shape" x="0" y="0" width="599.9975999999999" height="300.00239999999997" rx="24.000192" fill="#08427b" fill-opacity="1" stroke="#d1d5db" stroke-width="1"/><g opacity="0.7"><g transform="translate(335.998296 44.215795132566384) scale(0.25884852212389375)" style="color:rgb(6, 51, 95)"><g transform="translate(0,911) scale(0.1,-0.1)" fill="currentColor" stroke="none"><path d="M4084 8675 c-116 -20 -256 -68 -344 -117 -142 -78 -270 -233 -287 -347 -10 -62 -17 -68 -85 -74 -173 -14 -319 -140 -344 -295 -6 -37 -9 -41 -50 -51 -66 -17 -66 -21 -61 -486 3 -329 7 -411 20 -460 9 -33 21 -91 27 -128 11 -74 24 -105 76 -182 31 -46 33 -54 28 -101 l-7 -52 -33 14 c-40 17 -75 10 -100 -17 -20 -22 -21 -61 -4 -284 28 -375 51 -559 75 -612 30 -67 61 -87 124 -81 l49 5 5 -56 c11 -127 78 -319 158 -455 77 -130 205 -292 282 -354 194 -159 431 -276 659 -326 79 -18 37 -20 -82 -6 -272 34 -524 119 -671 226 -26 19 -49 34 -53 34 -3 0 -6 -121 -6 -269 l0 -270 203 -137 c111 -76 306 -209 433 -296 l231 -158 127 0 126 0 152 103 c84 56 280 190 436 296 l282 193 0 390 0 391 59 86 c115 169 202 375 223 530 l12 88 48 -5 c34 -3 55 0 73 12 26 17 57 71 69 121 15 62 74 799 65 822 -16 42 -68 55 -118 28 l-29 -14 -5 52 c-5 48 -2 56 33 107 39 57 70 134 70 175 0 13 10 61 22 107 20 77 22 112 25 493 4 460 5 451 -64 473 -37 12 -41 17 -47 54 -24 150 -168 278 -331 295 -78 7 -79 9 -55 42 56 80 110 249 110 346 0 42 -6 43 -44 5 -63 -64 -216 -94 -362 -71 -87 14 -186 47 -369 121 -225 92 -272 102 -485 106 -128 2 -210 -1 -266 -11z"/><path d="M3125 3769 c-293 -116 -1136 -388 -1545 -497 -116 -31 -256 -60 -353 -72 -172 -21 -252 -73 -348 -223 -76 -117 -111 -193 -169 -363 -169 -493 -327 -1188 -374 -1639 -11 -106 -12 -142 -3 -147 29 -18 424 -143 652 -207 1058 -295 2061 -470 3004 -522 307 -17 948 -7 1251 20 911 80 1830 254 2755 521 230 67 404 122 528 170 l57 22 -5 46 c-38 349 -63 499 -152 897 -80 361 -202 781 -289 993 -40 96 -132 249 -186 308 -64 70 -166 112 -308 129 -190 22 -671 159 -1340 381 -223 74 -466 159 -540 189 -74 29 -138 51 -141 47 -3 -4 -12 -304 -18 -666 -17 -902 -21 -966 -61 -1086 -100 -296 -314 -687 -564 -1030 l-44 -61 -6 53 c-3 29 -22 242 -41 473 -43 516 -42 511 -71 613 -32 111 -64 184 -140 323 -68 126 -104 219 -104 272 0 27 12 48 61 103 93 105 119 156 119 234 -1 160 -91 230 -300 230 -209 0 -299 -70 -300 -230 0 -79 26 -129 120 -235 l62 -70 -5 -59 c-5 -50 -21 -92 -101 -250 -99 -198 -147 -325 -165 -436 -6 -36 -27 -258 -46 -495 -19 -236 -37 -450 -41 -475 l-6 -45 -24 30 c-167 207 -415 633 -529 909 -79 190 -86 224 -96 441 -9 204 -29 1150 -29 1353 0 61 -3 112 -7 111 -5 0 -75 -27 -158 -60z"/></g></g></g><text x="299.99879999999996" y="150.00119999999998" text-anchor="middle" dominant-baseline="middle" fill="rgb(     5,     42,     79   )" font-size="16" font-family="Inter, system-ui, sans-serif" font-weight="600" style="user-select:none"/></g></svg></svg><text x="299.99879999999996" y="131.45834288333333" text-anchor="middle" dominant-baseline="middle" fill="#ffffff" font-size="22" font-family="Inter, system-ui, sans-serif" font-weight="600" style="user-select:none;font-size:22px">Personal Banking Customer</text><text x="299.99879999999996" y="155.65834288333332" text-anchor="middle" dominant-baseline="middle" fill="#ffffff" font-size="8.799999999999999" font-family="Inter, system-ui, sans-serif" font-weight="600" opacity="0.7" style="user-select:none;font-size:8.799999999999999px">[Person]</text><text x="299.99879999999996" y="173.2583428833333" text-anchor="middle" dominant-baseline="middle" fill="#ffffff" font-size="12.571428466666665" font-family="Inter, system-ui, sans-serif" font-weight="400" opacity="0.7" style="user-select:none;font-size:12.571428466666665px">A customer of the bank, with personal bank accounts.</text></g></svg>
<svg xmlns="http://www.w3.org/2000/svg" x="2489.0012" y="530" width="599.9975999999999" height="300.00239999999997" viewBox="0 0 599.9975999999999 300.00239999999997" style="overflow:visible"><g opacity="1"><svg xmlns="http://www.w3.org/2000/svg" width="599.9975999999999" height="300.00239999999997" viewBox="0 0 599.9975999999999 300.00239999999997" style="overflow:visible"><svg xmlns="http://www.w3.org/2000/svg" width="599.9975999999999" height="300.00239999999997" viewBox="0 0 599.9975999999999 300.00239999999997" style="overflow:visible"><g opacity="1"><rect class="node-shape" x="0" y="0" width="599.9975999999999" height="300.00239999999997" rx="24.000192" fill="#999999" fill-opacity="1" stroke="#d1d5db" stroke-width="1"/><g opacity="0.7"><g transform="translate(335.998296 44.215795132566384) scale(0.25884852212389375)" style="color:rgb(119, 119, 119)"><g transform="translate(0,911) scale(0.1,-0.1)" fill="currentColor" stroke="none"><path d="M4084 8675 c-116 -20 -256 -68 -344 -117 -142 -78 -270 -233 -287 -347 -10 -62 -17 -68 -85 -74 -173 -14 -319 -140 -344 -295 -6 -37 -9 -41 -50 -51 -66 -17 -66 -21 -61 -486 3 -329 7 -411 20 -460 9 -33 21 -91 27 -128 11 -74 24 -105 76 -182 31 -46 33 -54 28 -101 l-7 -52 -33 14 c-40 17 -75 10 -100 -17 -20 -22 -21 -61 -4 -284 28 -375 51 -559 75 -612 30 -67 61 -87 124 -81 l49 5 5 -56 c11 -127 78 -319 158 -455 77 -130 205 -292 282 -354 194 -159 431 -276 659 -326 79 -18 37 -20 -82 -6 -272 34 -524 119 -671 226 -26 19 -49 34 -53 34 -3 0 -6 -121 -6 -269 l0 -270 203 -137 c111 -76 306 -209 433 -296 l231 -158 127 0 126 0 152 103 c84 56 280 190 436 296 l282 193 0 390 0 391 59 86 c115 169 202 375 223 530 l12 88 48 -5 c34 -3 55 0 73 12 26 17 57 71 69 121 15 62 74 799 65 822 -16 42 -68 55 -118 28 l-29 -14 -5 52 c-5 48 -2 56 33 107 39 57 70 134 70 175 0 13 10 61 22 107 20 77 22 112 25 493 4 460 5 451 -64 473 -37 12 -41 17 -47 54 -24 150 -168 278 -331 295 -78 7 -79 9 -55 42 56 80 110 249 110 346 0 42 -6 43 -44 5 -63 -64 -216 -94 -362 -71 -87 14 -186 47 -369 121 -225 92 -272 102 -485 106 -128 2 -210 -1 -266 -11z"/><path d="M3125 3769 c-293 -116 -1136 -388 -1545 -497 -116 -31 -256 -60 -353 -72 -172 -21 -252 -73 -348 -223 -76 -117 -111 -193 -169 -363 -169 -493 -327 -1188 -374 -1639 -11 -106 -12 -142 -3 -147 29 -18 424 -143 652 -207 1058 -295 2061 -470 3004 -522 307 -17 948 -7 1251 20 911 80 1830 254 2755 521 230 67 404 122 528 170 l57 22 -5 46 c-38 349 -63 499 -152 897 -80 361 -202 781 -289 993 -40 96 -132 249 -186 308 -64 70 -166 112 -308 129 -190 22 -671 159 -1340 381 -223 74 -466 159 -540 189 -74 29 -138 51 -141 47 -3 -4 -12 -304 -18 -666 -17 -902 -21 -966 -61 -1086 -100 -296 -314 -687 -564 -1030 l-44 -61 -6 53 c-3 29 -22 242 -41 473 -43 516 -42 511 -71 613 -32 111 -64 184 -140 323 -68 126 -104 219 -104 272 0 27 12 48 61 103 93 105 119 156 119 234 -1 160 -91 230 -300 230 -209 0 -299 -70 -300 -230 0 -79 26 -129 120 -235 l62 -70 -5 -59 c-5 -50 -21 -92 -101 -250 -99 -198 -147 -325 -165 -436 -6 -36 -27 -258 -46 -495 -19 -236 -37 -450 -41 -475 l-6 -45 -24 30 c-167 207 -415 633 -529 909 -79 190 -86 224 -96 441 -9 204 -29 1150 -29 1353 0 61 -3 112 -7 111 -5 0 -75 -27 -158 -60z"/></g></g></g><text x="299.99879999999996" y="150.00119999999998" text-anchor="middle" dominant-baseline="middle" fill="rgb(     99,     99,     99   )" font-size="16" font-family="Inter, system-ui, sans-serif" font-weight="600" style="user-select:none"/></g></svg></svg><text x="299.99879999999996" y="131.45834288333333" text-anchor="middle" dominant-baseline="middle" fill="#ffffff" font-size="22" font-family="Inter, system-ui, sans-serif" font-weight="600" style="user-select:none;font-size:22px">Customer Service Staff</text><text x="299.99879999999996" y="155.65834288333332" text-anchor="middle" dominant-baseline="middle" fill="#ffffff" font-size="8.799999999999999" font-family="Inter, system-ui, sans-serif" font-weight="600" opacity="0.7" style="user-select:none;font-size:8.799999999999999px">[Person]</text><text x="299.99879999999996" y="173.2583428833333" text-anchor="middle" dominant-baseline="middle" fill="#ffffff" font-size="12.571428466666665" font-family="Inter, system-ui, sans-serif" font-weight="400" opacity="0.7" style="user-select:none;font-size:12.571428466666665px">Customer service staff within the bank.</text></g></svg>
<svg xmlns="http://www.w3.org/2000/svg" x="1716.0012000000002" y="530" width="599.9975999999999" height="300.00239999999997" viewBox="0 0 599.9975999999999 300.00239999999997" style="overflow:visible"><g opacity="1"><svg xmlns="http://www.w3.org/2000/svg" width="599.9975999999999" height="300.00239999999997" viewBox="0 0 599.9975999999999 300.00239999999997" style="overflow:visible"><svg xmlns="http://www.w3.org/2000/svg" width="599.9975999999999" height="300.00239999999997" viewBox="0 0 599.9975999999999 300.00239999999997" style="overflow:visible"><g opacity="1"><rect class="node-shape" x="0" y="0" width="599.9975999999999" height="300.00239999999997" rx="24.000192" fill="#999999" fill-opacity="1" stroke="#d1d5db" stroke-width="1"/><g opacity="0.7"><g transform="translate(335.998296 44.215795132566384) scale(0.25884852212389375)" style="color:rgb(119, 119, 119)"><g transform="translate(0,911) scale(0.1,-0.1)" fill="currentColor" stroke="none"><path d="M4084 8675 c-116 -20 -256 -68 -344 -117 -142 -78 -270 -233 -287 -347 -10 -62 -17 -68 -85 -74 -173 -14 -319 -140 -344 -295 -6 -37 -9 -41 -50 -51 -66 -17 -66 -21 -61 -486 3 -329 7 -411 20 -460 9 -33 21 -91 27 -128 11 -74 24 -105 76 -182 31 -46 33 -54 28 -101 l-7 -52 -33 14 c-40 17 -75 10 -100 -17 -20 -22 -21 -61 -4 -284 28 -375 51 -559 75 -612 30 -67 61 -87 124 -81 l49 5 5 -56 c11 -127 78 -319 158 -455 77 -130 205 -292 282 -354 194 -159 431 -276 659 -326 79 -18 37 -20 -82 -6 -272 34 -524 119 -671 226 -26 19 -49 34 -53 34 -3 0 -6 -121 -6 -269 l0 -270 203 -137 c111 -76 306 -209 433 -296 l231 -158 127 0 126 0 152 103 c84 56 280 190 436 296 l282 193 0 390 0 391 59 86 c115 169 202 375 223 530 l12 88 48 -5 c34 -3 55 0 73 12 26 17 57 71 69 121 15 62 74 799 65 822 -16 42 -68 55 -118 28 l-29 -14 -5 52 c-5 48 -2 56 33 107 39 57 70 134 70 175 0 13 10 61 22 107 20 77 22 112 25 493 4 460 5 451 -64 473 -37 12 -41 17 -47 54 -24 150 -168 278 -331 295 -78 7 -79 9 -55 42 56 80 110 249 110 346 0 42 -6 43 -44 5 -63 -64 -216 -94 -362 -71 -87 14 -186 47 -369 121 -225 92 -272 102 -485 106 -128 2 -210 -1 -266 -11z"/><path d="M3125 3769 c-293 -116 -1136 -388 -1545 -497 -116 -31 -256 -60 -353 -72 -172 -21 -252 -73 -348 -223 -76 -117 -111 -193 -169 -363 -169 -493 -327 -1188 -374 -1639 -11 -106 -12 -142 -3 -147 29 -18 424 -143 652 -207 1058 -295 2061 -470 3004 -522 307 -17 948 -7 1251 20 911 80 1830 254 2755 521 230 67 404 122 528 170 l57 22 -5 46 c-38 349 -63 499 -152 897 -80 361 -202 781 -289 993 -40 96 -132 249 -186 308 -64 70 -166 112 -308 129 -190 22 -671 159 -1340 381 -223 74 -466 159 -540 189 -74 29 -138 51 -141 47 -3 -4 -12 -304 -18 -666 -17 -902 -21 -966 -61 -1086 -100 -296 -314 -687 -564 -1030 l-44 -61 -6 53 c-3 29 -22 242 -41 473 -43 516 -42 511 -71 613 -32 111 -64 184 -140 323 -68 126 -104 219 -104 272 0 27 12 48 61 103 93 105 119 156 119 234 -1 160 -91 230 -300 230 -209 0 -299 -70 -300 -230 0 -79 26 -129 120 -235 l62 -70 -5 -59 c-5 -50 -21 -92 -101 -250 -99 -198 -147 -325 -165 -436 -6 -36 -27 -258 -46 -495 -19 -236 -37 -450 -41 -475 l-6 -45 -24 30 c-167 207 -415 633 -529 909 -79 190 -86 224 -96 441 -9 204 -29 1150 -29 1353 0 61 -3 112 -7 111 -5 0 -75 -27 -158 -60z"/></g></g></g><text x="299.99879999999996" y="150.00119999999998" text-anchor="middle" dominant-baseline="middle" fill="rgb(     99,     99,     99   )" font-size="16" font-family="Inter, system-ui, sans-serif" font-weight="600" style="user-select:none"/></g></svg></svg><text x="299.99879999999996" y="131.45834288333333" text-anchor="middle" dominant-baseline="middle" fill="#ffffff" font-size="22" font-family="Inter, system-ui, sans-serif" font-weight="600" style="user-select:none;font-size:22px">Back Office Staff</text><text x="299.99879999999996" y="155.65834288333332" text-anchor="middle" dominant-baseline="middle" fill="#ffffff" font-size="8.799999999999999" font-family="Inter, system-ui, sans-serif" font-weight="600" opacity="0.7" style="user-select:none;font-size:8.799999999999999px">[Person]</text><text x="299.99879999999996" y="173.2583428833333" text-anchor="middle" dominant-baseline="middle" fill="#ffffff" font-size="12.571428466666665" font-family="Inter, system-ui, sans-serif" font-weight="400" opacity="0.7" style="user-select:none;font-size:12.571428466666665px">Administration and support staff within the bank.</text></g></svg>
<svg xmlns="http://www.w3.org/2000/svg" x="1329.0012000000002" y="960" width="599.9975999999999" height="300.00239999999997" viewBox="0 0 599.9975999999999 300.00239999999997" style="overflow:visible"><g opacity="1"><svg xmlns="http://www.w3.org/2000/svg" width="599.9975999999999" height="300.00239999999997" viewBox="0 0 599.9975999999999 300.00239999999997" style="overflow:visible"><g opacity="1"><g class="rf-node-root" style="--node-border:#d1d5db;--node-fill:#999999;--node-fill-hover:rgb(156, 156, 156);--accent:var(--editor-node-border-hover, var(--vscode-focusBorder, #3b82f6));--node-shape-transition:transform 140ms ease-out, stroke 140ms ease-out, stroke-width 140ms ease-out, fill 140ms ease-out, filter 140ms ease-out" opacity="1"><g class="node-hitbox"><rect x="0" y="0" width="599.9975999999999" height="300.00239999999997" fill="transparent" fill-opacity="0.001"/></g><g class="node-visual" style="transition:filter 140ms ease-out"><rect class="node-shape" x="1.1249999999999998" y="1.1249999999999998" width="597.7475999999999" height="297.75239999999997" rx="12" ry="12" fill="#999999" fill-opacity="1" stroke="#d1d5db" stroke-width="2.2499999999999996"/></g></g><text x="299.99879999999996" y="150.00119999999998" text-anchor="middle" dominant-baseline="middle" fill="#ffffff" font-size="39.99983999999999" font-family="Inter, system-ui, sans-serif" font-weight="600" style="user-select:none;font-size:39.99983999999999px"/></g></svg><text x="299.99879999999996" y="100.2871133238088" text-anchor="middle" dominant-baseline="middle" fill="#ffffff" font-size="39.99983999999999" font-family="Inter, system-ui, sans-serif" font-weight="600" style="user-select:none;font-size:39.99983999999999px">Mainframe Banking System</text><text x="299.99879999999996" y="144.2869373238088" text-anchor="middle" dominant-baseline="middle" fill="#ffffff" font-size="15.999935999999995" font-family="Inter, system-ui, sans-serif" font-weight="600" opacity="0.7" style="user-select:none;font-size:15.999935999999995px">[Software System]</text><text x="299.99879999999996" y="176.28680932380877" text-anchor="middle" dominant-baseline="middle" fill="#ffffff" font-size="22.85705123809599" font-family="Inter, system-ui, sans-serif" font-weight="400" opacity="0.7" style="user-select:none;font-size:22.85705123809599px">Stores all of the core banking information about</text><text x="299.99879999999996" y="208.28668105714314" text-anchor="middle" dominant-baseline="middle" fill="#ffffff" font-size="22.85705123809599" font-family="Inter, system-ui, sans-serif" font-weight="400" opacity="0.7" style="user-select:none;font-size:22.85705123809599px">customers, accounts, transactions, etc.</text></g></svg>
<svg xmlns="http://www.w3.org/2000/svg" x="170.00120000000004" y="960" width="599.9975999999999" height="300.00239999999997" viewBox="0 0 599.9975999999999 300.00239999999997" style="overflow:visible"><g opacity="1"><svg xmlns="http://www.w3.org/2000/svg" width="599.9975999999999" height="300.00239999999997" viewBox="0 0 599.9975999999999 300.00239999999997" style="overflow:visible"><g opacity="1"><g class="rf-node-root" style="--node-border:#d1d5db;--node-fill:#999999;--node-fill-hover:rgb(156, 156, 156);--accent:var(--editor-node-border-hover, var(--vscode-focusBorder, #3b82f6));--node-shape-transition:transform 140ms ease-out, stroke 140ms ease-out, stroke-width 140ms ease-out, fill 140ms ease-out, filter 140ms ease-out" opacity="1"><g class="node-hitbox"><rect x="0" y="0" width="599.9975999999999" height="300.00239999999997" fill="transparent" fill-opacity="0.001"/></g><g class="node-visual" style="transition:filter 140ms ease-out"><rect class="node-shape" x="1.1249999999999998" y="1.1249999999999998" width="597.7475999999999" height="297.75239999999997" rx="12" ry="12" fill="#999999" fill-opacity="1" stroke="#d1d5db" stroke-width="2.2499999999999996"/></g></g><text x="299.99879999999996" y="150.00119999999998" text-anchor="middle" dominant-baseline="middle" fill="#ffffff" font-size="39.99983999999999" font-family="Inter, system-ui, sans-serif" font-weight="600" style="user-select:none;font-size:39.99983999999999px"/></g></svg><text x="299.99879999999996" y="116.28704919047598" text-anchor="middle" dominant-baseline="middle" fill="#ffffff" font-size="39.99983999999999" font-family="Inter, system-ui, sans-serif" font-weight="600" style="user-select:none;font-size:39.99983999999999px">E-mail System</text><text x="299.99879999999996" y="160.28687319047597" text-anchor="middle" dominant-baseline="middle" fill="#ffffff" font-size="15.999935999999995" font-family="Inter, system-ui, sans-serif" font-weight="600" opacity="0.7" style="user-select:none;font-size:15.999935999999995px">[Software System]</text><text x="299.99879999999996" y="192.28674519047595" text-anchor="middle" dominant-baseline="middle" fill="#ffffff" font-size="22.85705123809599" font-family="Inter, system-ui, sans-serif" font-weight="400" opacity="0.7" style="user-select:none;font-size:22.85705123809599px">The internal Microsoft Exchange e-mail system.</text></g></svg>
<svg xmlns="http://www.w3.org/2000/svg" x="943.0012" y="530" width="599.9975999999999" height="300.00239999999997" viewBox="0 0 599.9975999999999 300.00239999999997" style="overflow:visible"><g opacity="1"><svg xmlns="http://www.w3.org/2000/svg" width="599.9975999999999" height="300.00239999999997" viewBox="0 0 599.9975999999999 300.00239999999997" style="overflow:visible"><g opacity="1"><g class="rf-node-root" style="--node-border:#d1d5db;--node-fill:#999999;--node-fill-hover:rgb(156, 156, 156);--accent:var(--editor-node-border-hover, var(--vscode-focusBorder, #3b82f6));--node-shape-transition:transform 140ms ease-out, stroke 140ms ease-out, stroke-width 140ms ease-out, fill 140ms ease-out, filter 140ms ease-out" opacity="1"><g class="node-hitbox"><rect x="0" y="0" width="599.9975999999999" height="300.00239999999997" fill="transparent" fill-opacity="0.001"/></g><g class="node-visual" style="transition:filter 140ms ease-out"><rect class="node-shape" x="1.1249999999999998" y="1.1249999999999998" width="597.7475999999999" height="297.75239999999997" rx="12" ry="12" fill="#999999" fill-opacity="1" stroke="#d1d5db" stroke-width="2.2499999999999996"/></g></g><text x="299.99879999999996" y="150.00119999999998" text-anchor="middle" dominant-baseline="middle" fill="#ffffff" font-size="39.99983999999999" font-family="Inter, system-ui, sans-serif" font-weight="600" style="user-select:none;font-size:39.99983999999999px"/></g></svg><text x="299.99879999999996" y="116.28704919047598" text-anchor="middle" dominant-baseline="middle" fill="#ffffff" font-size="39.99983999999999" font-family="Inter, system-ui, sans-serif" font-weight="600" style="user-select:none;font-size:39.99983999999999px">ATM</text><text x="299.99879999999996" y="160.28687319047597" text-anchor="middle" dominant-baseline="middle" fill="#ffffff" font-size="15.999935999999995" font-family="Inter, system-ui, sans-serif" font-weight="600" opacity="0.7" style="user-select:none;font-size:15.999935999999995px">[Software System]</text><text x="299.99879999999996" y="192.28674519047595" text-anchor="middle" dominant-baseline="middle" fill="#ffffff" font-size="22.85705123809599" font-family="Inter, system-ui, sans-serif" font-weight="400" opacity="0.7" style="user-select:none;font-size:22.85705123809599px">Allows customers to withdraw cash.</text></g></svg>
<svg xmlns="http://www.w3.org/2000/svg" x="170.00120000000004" y="530" width="599.9975999999999" height="300.00239999999997" viewBox="0 0 599.9975999999999 300.00239999999997" style="overflow:visible"><g opacity="1"><svg xmlns="http://www.w3.org/2000/svg" width="599.9975999999999" height="300.00239999999997" viewBox="0 0 599.9975999999999 300.00239999999997" style="overflow:visible"><g opacity="1"><g class="rf-node-root" style="--node-border:#d1d5db;--node-fill:#1168bd;--node-fill-hover:rgb(23, 108, 191);--accent:var(--editor-node-border-hover, var(--vscode-focusBorder, #3b82f6));--node-shape-transition:transform 140ms ease-out, stroke 140ms ease-out, stroke-width 140ms ease-out, fill 140ms ease-out, filter 140ms ease-out" opacity="1"><g class="node-hitbox"><rect x="0" y="0" width="599.9975999999999" height="300.00239999999997" fill="transparent" fill-opacity="0.001"/></g><g class="node-visual" style="transition:filter 140ms ease-out"><rect class="node-shape" x="1.1249999999999998" y="1.1249999999999998" width="597.7475999999999" height="297.75239999999997" rx="12" ry="12" fill="#1168bd" fill-opacity="1" stroke="#d1d5db" stroke-width="2.2499999999999996"/></g></g><text x="299.99879999999996" y="150.00119999999998" text-anchor="middle" dominant-baseline="middle" fill="#ffffff" font-size="39.99983999999999" font-family="Inter, system-ui, sans-serif" font-weight="600" style="user-select:none;font-size:39.99983999999999px"/></g></svg><text x="299.99879999999996" y="100.2871133238088" text-anchor="middle" dominant-baseline="middle" fill="#ffffff" font-size="39.99983999999999" font-family="Inter, system-ui, sans-serif" font-weight="600" style="user-select:none;font-size:39.99983999999999px">Internet Banking System</text><text x="299.99879999999996" y="144.2869373238088" text-anchor="middle" dominant-baseline="middle" fill="#ffffff" font-size="15.999935999999995" font-family="Inter, system-ui, sans-serif" font-weight="600" opacity="0.7" style="user-select:none;font-size:15.999935999999995px">[Software System]</text><text x="299.99879999999996" y="176.28680932380877" text-anchor="middle" dominant-baseline="middle" fill="#ffffff" font-size="22.85705123809599" font-family="Inter, system-ui, sans-serif" font-weight="400" opacity="0.7" style="user-select:none;font-size:22.85705123809599px">Allows customers to view information about their bank</text><text x="299.99879999999996" y="208.28668105714314" text-anchor="middle" dominant-baseline="middle" fill="#ffffff" font-size="22.85705123809599" font-family="Inter, system-ui, sans-serif" font-weight="400" opacity="0.7" style="user-select:none;font-size:22.85705123809599px">accounts, and make payments.</text></g></svg>
<text x="827.67" y="1127.9812" text-anchor="middle" dominant-baseline="middle" font-family="Inter, system-ui, sans-serif" font-size="9.75" font-weight="400" fill="#cccccc" opacity="1">[...]</text>
<text x="470" y="881.2862" text-anchor="middle" dominant-baseline="middle" font-family="Inter, system-ui, sans-serif" font-size="13" font-weight="400" fill="#cccccc" opacity="1">Sends e-mail using</text>
<text x="2504.705" y="1102.0012" text-anchor="middle" dominant-baseline="middle" font-family="Inter, system-ui, sans-serif" font-size="13" font-weight="400" fill="#cccccc" opacity="1">Uses</text>
<text x="1436" y="881.2862" text-anchor="middle" dominant-baseline="middle" font-family="Inter, system-ui, sans-serif" font-size="13" font-weight="400" fill="#cccccc" opacity="1">Uses</text>
<text x="1822.5" y="881.2862" text-anchor="middle" dominant-baseline="middle" font-family="Inter, system-ui, sans-serif" font-size="13" font-weight="400" fill="#cccccc" opacity="1">Uses</text>
<text x="663" y="451.28619999999995" text-anchor="middle" dominant-baseline="middle" font-family="Inter, system-ui, sans-serif" font-size="9.75" font-weight="400" fill="#cccccc" opacity="1">[...]</text>
<text x="885.33" y="785.4161999999999" text-anchor="middle" dominant-baseline="middle" font-family="Inter, system-ui, sans-serif" font-size="13" font-weight="400" fill="#cccccc" opacity="1">Sends e-mails to</text>
<text x="2106.7450000000003" y="234.20119999999997" text-anchor="middle" dominant-baseline="middle" font-family="Inter, system-ui, sans-serif" font-size="13" font-weight="400" fill="#cccccc" opacity="1">Asks questions to</text>
<text x="2106.7450000000003" y="249.80119999999997" text-anchor="middle" dominant-baseline="middle" font-family="Inter, system-ui, sans-serif" font-size="9.75" font-weight="400" fill="#cccccc" opacity="1">[Telephone]</text>
<text x="1049.5" y="451.28619999999995" text-anchor="middle" dominant-baseline="middle" font-family="Inter, system-ui, sans-serif" font-size="13" font-weight="400" fill="#cccccc" opacity="1">Withdraws cash using</text>
</svg>